<svg id="圖層_1" data-name="圖層 1" xmlns="http://www.w3.org/2000/svg" viewBox="0 0 624.59 316.26"><defs><style>.cls-1{fill:#84bf54;}.cls-2{fill:#005174;}.cls-3{fill:#9cca54;}</style></defs><path class="cls-1" d="M102.49,347.7" transform="translate(-114.81 -135.7)"/><path class="cls-1" d="M333.73,119.14" transform="translate(-114.81 -135.7)"/><path class="cls-2" d="M197.85,364.27l-24-66.17c-6.64-15.86-18.6-17.89-26.21-17.89H114.81l50.35,138.7a29.72,29.72,0,0,0,8.67,11.6c.35.29.71.56,1.07.82l.54.38c.52.36,1,.69,1.57,1l.3.17A30.91,30.91,0,0,0,191,436.64h33.16Z" transform="translate(-114.81 -135.7)"/><polygon class="cls-3" points="113.53 144.51 83.04 228.57 109.31 300.94 109.32 300.94 139.82 216.85 113.56 144.51 113.53 144.51"/><path class="cls-2" d="M287.39,298.1a29,29,0,0,0-8.74-11.77,30.2,30.2,0,0,0-17.46-6.12H228.37l26.26,72.34,24.09,66.36c6.32,16.43,19.6,17.73,25.8,17.73h33.16Z" transform="translate(-114.81 -135.7)"/><path class="cls-2" d="M360.87,280.17c-6.73-.06-18.49,2-25.36,17.78l-24.08,66.16H364l30.55-83.94Z" transform="translate(-114.81 -135.7)"/><path class="cls-3" d="M488.75,194.81,429.1,135.7,410.53,187h0c-5.12,17.73,3.72,30.83,7.31,33.77l59.83,59.28.05,0L497,226.93c.34-1.07.59-2.14.73-2.58C499.43,218.79,499.08,206.23,488.75,194.81Z" transform="translate(-114.81 -135.7)"/><path class="cls-2" d="M551.4,306.25,560.93,280H527.06c-9.1,0-18.81,1.28-25,17.35l-36.28,100h0l-.05.12-.52,1.43c-2.62,7.85-9.35,37.67,16.92,37.78h44.22c3.86-.11,9.9-1.54,13.31-10.64l10.11-27.78H518l19.44-53.55h21.86c3.92-.08,9.68-1.72,13.31-10.64l10.11-27.78Z" transform="translate(-114.81 -135.7)"/><path class="cls-2" d="M727.66,428.46a12.09,12.09,0,0,1,5.78,1.52,10.79,10.79,0,0,1,4.39,4.34,12,12,0,0,1,1.57,5.9,11.82,11.82,0,0,1-1.55,5.83,11,11,0,0,1-4.34,4.36,11.8,11.8,0,0,1-11.69,0,11,11,0,0,1-4.36-4.36,11.77,11.77,0,0,1,0-11.73,10.82,10.82,0,0,1,4.4-4.34A12,12,0,0,1,727.66,428.46Zm0,2a10.09,10.09,0,0,0-4.82,1.26,9.13,9.13,0,0,0-3.66,3.63,9.75,9.75,0,0,0,0,9.78,9.27,9.27,0,0,0,3.64,3.63,9.79,9.79,0,0,0,9.75,0,9.22,9.22,0,0,0,3.62-3.63,9.79,9.79,0,0,0,1.3-4.86,10,10,0,0,0-1.32-4.92,9.09,9.09,0,0,0-3.67-3.63A10,10,0,0,0,727.66,430.41Zm-5.15,16.3V434.07h4.34a10.47,10.47,0,0,1,3.23.35,3.09,3.09,0,0,1,1.58,1.22,3.21,3.21,0,0,1,.6,1.85,3.34,3.34,0,0,1-1,2.41,3.94,3.94,0,0,1-2.63,1.16,3.32,3.32,0,0,1,1.08.67,14.61,14.61,0,0,1,1.87,2.5l1.54,2.48h-2.49l-1.12-2a10.43,10.43,0,0,0-2.14-3,2.62,2.62,0,0,0-1.63-.43h-1.2v5.37Zm2-7.12H727a4,4,0,0,0,2.43-.53,1.71,1.71,0,0,0,.64-1.4,1.67,1.67,0,0,0-.31-1,1.84,1.84,0,0,0-.86-.66,6.31,6.31,0,0,0-2-.22h-2.32Z" transform="translate(-114.81 -135.7)"/><path class="cls-2" d="M725.21,281.64a28.83,28.83,0,0,0-9-1.42H633.5c-30,1.34-21.65,33.35-20.52,37.25l29.31,80.75H612.18l14.58-40.07H599.65c-6,.17-12.19,2.37-16.14,13.32h0l-10.67,29.32c-2.75,8.93-7.63,35.84,17.78,35.84h87.46c22.88-.2,22.53-22.35,18.07-34.76l-30.21-83.23H688l-5,13.62h27.25c4.94-.06,11.6-2.33,15.81-12.75l7.17-19.7C736.6,289.46,730.75,283.91,725.21,281.64Z" transform="translate(-114.81 -135.7)"/><path class="cls-2" d="M443.85,280.11c-6.77,0-18.12,2.18-25,17.36L368.42,436.53h40.81s1.34,0,2-.07l.52-.06.16,0a15.2,15.2,0,0,0,3.86-1h0a15.08,15.08,0,0,0,9-9.24l53-146Z" transform="translate(-114.81 -135.7)"/></svg>